<svg xmlns="http://www.w3.org/2000/svg" viewBox="0 0 32 32"><defs><style>.a{fill:#21ce99;}</style></defs><g transform="translate(-60 -25)"><circle class="a" cx="5" cy="5" r="5" transform="translate(71 36)"/><path class="a" d="M-1791,2768h0a15.9,15.9,0,0,1-11.313-4.686A15.894,15.894,0,0,1-1807,2752a15.9,15.9,0,0,1,4.687-11.314A15.9,15.9,0,0,1-1791,2736a15.9,15.9,0,0,1,11.314,4.686A15.9,15.9,0,0,1-1775,2752h-6a9.933,9.933,0,0,0-2.932-7.068A9.932,9.932,0,0,0-1791,2742a10.011,10.011,0,0,0-10,10,10.011,10.011,0,0,0,10,10v6Z" transform="translate(1867 -2711)"/></g></svg>