<svg xmlns="http://www.w3.org/2000/svg" viewBox="0 0 24.2 24">
  <defs>
    <style>
      .cls-1 {
        fill: none;
        stroke: #000;
        stroke-linecap: round;
        stroke-linejoin: round;
        stroke-miterlimit: 10;
        stroke-width: 1.2px;
      }

      .cls-2 {
        fill: rgba(0,0,0,0);
      }
    </style>
  </defs>
  <g id="wallet-3" transform="translate(0.1)">
    <g id="Outline_Icons" transform="translate(0.5 1.5)">
      <g id="Group_58" data-name="Group 58">
        <path id="Path_36" data-name="Path 36" class="cls-1" d="M1.3,1.368,14.59,4.39a3.77,3.77,0,0,1,2.91,3.4V18.714a2.227,2.227,0,0,1-2.92,2.106L3.42,18.43A3.716,3.716,0,0,1,.5,15.071V3.232A2.883,2.883,0,0,1,3.5.5h17a2.883,2.883,0,0,1,3,2.732V13.25a2.884,2.884,0,0,1-3,2.732h-3" transform="translate(-0.5 -0.5)"/>
        <circle id="Ellipse_3" data-name="Ellipse 3" class="cls-1" cx="2" cy="2" r="2" transform="translate(10.5 10.018)"/>
      </g>
    </g>
    <g id="Invisible_Shape">
      <rect id="Rectangle_133" data-name="Rectangle 133" class="cls-2" width="24" height="24"/>
    </g>
  </g>
</svg>
